<?xml version="1.0" encoding="UTF-8" standalone="no"?>
<!-- Created with Inkscape (http://www.inkscape.org/) -->
<svg xmlns:dc="http://purl.org/dc/elements/1.1/" xmlns:cc="http://creativecommons.org/ns#" xmlns:rdf="http://www.w3.org/1999/02/22-rdf-syntax-ns#" xmlns:svg="http://www.w3.org/2000/svg" xmlns="http://www.w3.org/2000/svg" xmlns:xlink="http://www.w3.org/1999/xlink" xmlns:sodipodi="http://sodipodi.sourceforge.net/DTD/sodipodi-0.dtd" xmlns:inkscape="http://www.inkscape.org/namespaces/inkscape" width="1300" height="1000" id="svg7246" sodipodi:version="0.32" inkscape:version="0.46" sodipodi:docname="Neptune diagram.svg" inkscape:output_extension="org.inkscape.output.svg.inkscape" version="1.0">
  <defs id="defs7248">
    <linearGradient id="linearGradient9098">
      <stop id="stop4127" offset="0" style="stop-color:#467efe;stop-opacity:1;"/>
      <stop style="stop-color:#0d236d;stop-opacity:1;" offset="1" id="stop9102"/>
    </linearGradient>
    <linearGradient id="linearGradient8058">
      <stop style="stop-color:#8b8b9d;stop-opacity:1;" offset="0" id="stop8060"/>
      <stop id="stop3284" offset="0.77777779" style="stop-color:#9a9db7;stop-opacity:1;"/>
      <stop style="stop-color:#a9afd2;stop-opacity:1" offset="1" id="stop8062"/>
    </linearGradient>
    <linearGradient id="linearGradient7939">
      <stop style="stop-color:#6b4307;stop-opacity:1" offset="0" id="stop7941"/>
      <stop style="stop-color:#1a1001;stop-opacity:1" offset="1" id="stop7943"/>
    </linearGradient>
    <linearGradient id="linearGradient7900">
      <stop style="stop-color:#6879ce;stop-opacity:1;" offset="0" id="stop7902"/>
      <stop id="stop7908" offset="0.77777779" style="stop-color:#6878ce;stop-opacity:1;"/>
      <stop style="stop-color:#aab4ed;stop-opacity:1;" offset="1" id="stop7904"/>
    </linearGradient>
    <filter inkscape:collect="always" id="filter3257">
      <feGaussianBlur inkscape:collect="always" stdDeviation="4.4548991" id="feGaussianBlur3259"/>
    </filter>
    <radialGradient inkscape:collect="always" xlink:href="#linearGradient7939" id="radialGradient4050" gradientUnits="userSpaceOnUse" gradientTransform="matrix(1.1070503,-0.1630755,0.237993,1.6156328,-111.61337,-235.59577)" cx="131.60394" cy="407.84677" fx="131.60394" fy="407.84677" r="23.76902"/>
    <radialGradient inkscape:collect="always" xlink:href="#linearGradient8058" id="radialGradient4068" gradientUnits="userSpaceOnUse" gradientTransform="matrix(-1.1885722,1.3704358e-6,-5.5685817e-6,-4.8296035,269.70968,2436.6947)" cx="123.23438" cy="417.98639" fx="123.23438" fy="417.98639" r="26.660942"/>
    <radialGradient inkscape:collect="always" xlink:href="#linearGradient8058" id="radialGradient4071" gradientUnits="userSpaceOnUse" gradientTransform="matrix(1.2588347,0,0,1.2522673,-31.897336,-105.44404)" cx="123.23438" cy="417.98679" fx="123.23438" fy="417.98679" r="102.92357"/>
    <radialGradient inkscape:collect="always" xlink:href="#linearGradient7900" id="radialGradient4074" gradientUnits="userSpaceOnUse" gradientTransform="matrix(1.9931248,0,0,1.9931249,-122.38712,-415.11269)" cx="123.23438" cy="417.98639" fx="123.23438" fy="417.98639" r="145.45181"/>
    <radialGradient inkscape:collect="always" xlink:href="#linearGradient7900" id="radialGradient4077" gradientUnits="userSpaceOnUse" gradientTransform="matrix(-1.5828149,0,0,-7.7585927,318.37032,3660.9726)" cx="123.31964" cy="417.98639" fx="123.31964" fy="417.98639" r="37.36549"/>
    <radialGradient inkscape:collect="always" xlink:href="#linearGradient9098" id="radialGradient4125" cx="-34.373363" cy="443.98639" fx="-34.373363" fy="443.98639" r="291.40363" gradientUnits="userSpaceOnUse" spreadMethod="reflect" gradientTransform="matrix(1.22649,0,0,1.22649,11.496946,-100.55847)"/>
  </defs>
  <sodipodi:namedview id="base" pagecolor="#ffffff" bordercolor="#666666" borderopacity="1.0" gridtolerance="10000" guidetolerance="10" objecttolerance="10" inkscape:pageopacity="0.0" inkscape:pageshadow="2" inkscape:zoom="0.3535534" inkscape:cx="730.40486" inkscape:cy="397.11443" inkscape:document-units="px" inkscape:current-layer="layer1" showgrid="false" showguides="true" inkscape:guide-bbox="true" inkscape:window-width="1280" inkscape:window-height="968" inkscape:window-x="-4" inkscape:window-y="-4"/>
  <metadata id="metadata7251">
    <rdf:RDF>
      <cc:Work rdf:about="">
        <dc:format>image/svg+xml</dc:format>
        <dc:type rdf:resource="http://purl.org/dc/dcmitype/StillImage"/>
      </cc:Work>
    </rdf:RDF>
  </metadata>
  <g inkscape:label="Layer 1" inkscape:groupmode="layer" id="layer1" transform="translate(376.16925,82.609924)">
    <rect style="opacity:1;fill:#000000;fill-opacity:1;fill-rule:evenodd;stroke:none;stroke-width:5;stroke-linecap:round;stroke-linejoin:round;stroke-miterlimit:4;stroke-dasharray:none;stroke-dashoffset:0;stroke-opacity:1" id="rect4131" width="1300" height="1000" x="-376.16925" y="-82.609924"/>
    <g id="g4105" transform="matrix(1.3517071,0,0,1.3517071,-90.746016,-147.6051)">
      <g id="g3897">
        <path sodipodi:type="arc" style="fill:url(#radialGradient4125);fill-opacity:1;fill-rule:evenodd;stroke:#000000;stroke-width:5;stroke-linecap:round;stroke-linejoin:round;stroke-miterlimit:4;stroke-dasharray:none;stroke-dashoffset:0;stroke-opacity:1" id="path7358" sodipodi:cx="123.23861" sodipodi:cy="417.98639" sodipodi:rx="288.90363" sodipodi:ry="288.90363" d="M 412.14223,417.98639 A 288.90363,288.90363 0 1 1 -165.66502,417.98639 A 288.90363,288.90363 0 1 1 412.14223,417.98639 z" transform="translate(-4.229314e-3,0)"/>
        <g id="g3225" style="filter:url(#filter3257)" transform="translate(0,1.4142136)">
          <path sodipodi:nodetypes="cssssssssssssssss" id="path9016" d="M 4.5111422e-06,456.02513 C -17.514865,451.55472 -35.846405,455.03224 -53.431145,451.3452 C -59.971355,449.97389 -66.128465,446.61207 -71.052975,441.92589 C -74.237875,438.89512 -85.219675,438.84239 -85.690055,441.49412 C -86.187925,444.30077 -77.022095,451.13277 -77.976555,450.78294 C -81.048245,449.65709 -88.421975,444.86082 -91.774405,439.94114 C -93.834685,436.91769 -106.54025,437.14234 -105.38281,442.322 C -104.86632,444.63336 -94.720305,450.68781 -101.25293,450.04173 C -108.77744,449.29756 -114.87343,443.59517 -122.42517,442.09813 C -126.169,441.35596 -135.85622,442.66084 -129.08899,446.6953 C -126.20549,448.41437 -118.74055,452.92467 -126.125,453.65013 C -135.4516,454.56639 -146.46554,450.95576 -154.17578,456.76744 C -159.25542,460.59627 -146.88851,462.52861 -143.83076,462.87387 C -121.43106,465.40309 -98.812405,463.81361 -76.316115,463.57978 C -51.272155,463.31946 -26.170345,462.74036 -1.2036855,461.0967 C 2.0521045,460.88236 10.920075,458.87378 3.5478745,456.96687 C 2.3630645,456.6604 1.1856345,456.32775 4.5111422e-06,456.02513 z" style="fill:#ffffff;fill-opacity:0.58823529;fill-rule:evenodd;stroke:none;stroke-width:1px;stroke-linecap:butt;stroke-linejoin:miter;stroke-opacity:1"/>
          <path sodipodi:nodetypes="czzzzzzzzzzzz" id="path9023" d="M -21.740355,417.98718 C -25.871035,417.08896 -37.235055,418.97382 -43.871415,415.15801 C -50.507775,411.3422 -57.815125,407.96939 -65.569225,408.1677 C -73.323325,408.366 -83.536215,406.1716 -88.562715,408.89107 C -93.589215,411.61054 -87.688605,417.57428 -94.121395,417.72492 C -100.55419,417.87556 -99.016105,419.57687 -107.77179,417.98718 C -116.52747,416.39749 -123.48861,428.14869 -115.59793,431.66261 C -107.70725,435.17653 -90.966205,433.78107 -81.956645,434.93052 C -72.947085,436.07997 -68.113285,436.17884 -61.283955,436.5957 C -54.454625,437.01257 -49.947045,442.63122 -42.615485,443.26147 C -35.283925,443.89172 -25.208565,443.89775 -19.142235,441.17742 C -13.075905,438.45709 -15.140245,433.68559 -16.865135,429.7997 C -18.590025,425.91381 -17.609685,418.8854 -21.740355,417.98718 z" style="fill:#396ce2;fill-opacity:1;fill-rule:evenodd;stroke:none;stroke-width:1px;stroke-linecap:butt;stroke-linejoin:miter;stroke-opacity:1"/>
          <path sodipodi:nodetypes="cssss" id="path9030" d="M -17.533265,372.12546 C -14.230525,371.77419 1.8468645,375.44645 0.14440451,382.73206 C -0.55875549,385.74121 -14.804425,384.14628 -28.846965,384.14628 C -33.590085,384.14628 -33.103925,377.83956 -32.382505,374.95389 C -31.502635,371.43441 -19.904855,372.37769 -17.533265,372.12546 z" style="fill:#ffffff;fill-opacity:0.19607843;fill-rule:evenodd;stroke:none;stroke-width:1px;stroke-linecap:butt;stroke-linejoin:miter;stroke-opacity:1"/>
          <path id="path9044" d="M 56.750005,541.86218 C 41.000005,541.61218 37.500005,537.36218 29.000005,534.86218 C 20.500005,532.36218 12.500005,534.36218 28.000005,539.86218 C 43.500005,545.36218 43.000005,549.11218 16.250005,542.61218 C -10.499995,536.11218 -77.999995,534.61218 -30.249995,553.11218 C 17.500005,571.61218 50.250005,556.61218 59.000005,551.86218 C 67.750005,547.11218 67.500005,541.61218 56.750005,541.86218 z" style="fill:#ffffff;fill-opacity:0.39215686;fill-rule:evenodd;stroke:none;stroke-width:1px;stroke-linecap:butt;stroke-linejoin:miter;stroke-opacity:1"/>
          <path id="path9050" d="M 64.500005,249.86219 C 8.0000045,247.86219 -9.4999955,244.36219 -28.999995,241.86219 C -48.499995,239.36219 -57.999995,241.36219 -25.999995,247.86219 C 6.0000045,254.36219 -20.999995,256.36219 -56.999995,252.86219 C -92.999995,249.36219 -106.5,254.86219 -63.499995,258.86219 C -20.499995,262.86219 -22.499995,263.86219 -40.499995,264.86219 C -58.499995,265.86219 -66.999995,271.36219 -28.499995,269.36219 C 10.000005,267.36219 22.000005,271.86219 -0.99999549,272.36219 C -23.999995,272.86219 -39.499995,278.36219 1.5000045,275.86219 C 42.500005,273.36219 148,267.86219 64.500005,249.86219 z" style="fill:#ffffff;fill-opacity:0.39215686;fill-rule:evenodd;stroke:none;stroke-width:1px;stroke-linecap:butt;stroke-linejoin:miter;stroke-opacity:1"/>
          <path id="path9056" d="M 60.809105,583.02526 C 32.524875,575.24709 -9.1944255,582.67171 21.918275,568.88313 C 53.031005,555.09454 78.486805,561.81206 58.687805,566.0547 C 38.888835,570.29734 32.878425,572.06511 50.909605,575.95419 C 68.940905,579.84328 75.304805,585.50014 60.809105,583.02526 z" style="fill:#2c53b8;fill-opacity:1;fill-rule:evenodd;stroke:none;stroke-width:1px;stroke-linecap:butt;stroke-linejoin:miter;stroke-opacity:1"/>
        </g>
      </g>
      <g id="g4085">
        <g id="g4079">
          <path d="M 123.23438,706.89001 C 83.086879,706.89002 50.503399,577.4612 50.503398,417.9864 C 50.503397,258.5116 83.086875,129.08277 123.23438,129.08276 C 123.23438,129.08276 123.23438,129.08276 123.23438,129.08276 M 123.23438,621.83991 C 94.905871,621.83991 71.914615,530.51354 71.914615,417.9864 C 71.914614,305.45926 94.905868,214.13288 123.23438,214.13287 C 123.23438,214.13287 123.23438,214.13287 123.23438,214.13287" style="fill:url(#radialGradient4077);fill-opacity:1;fill-rule:evenodd;stroke:#000000;stroke-width:2;stroke-linecap:round;stroke-linejoin:round;stroke-miterlimit:4;stroke-dashoffset:0;stroke-opacity:1" id="path7869"/>
          <path sodipodi:nodetypes="cscccscc" d="M 123.23861,214.14136 C 235.76107,214.14136 327.08364,305.46394 327.08364,417.98639 C 327.08364,530.50885 235.76107,621.83142 123.23862,621.83142 M 120.9375,706.74164 L 123.23439,706.89001 C 282.70918,706.89001 412.138,577.46119 412.138,417.98639 C 412.13801,258.51159 282.70919,129.08277 123.23438,129.08276 L 120.9375,129.23718" style="fill:url(#radialGradient4074);fill-opacity:1;fill-rule:evenodd;stroke:#000000;stroke-width:2;stroke-linecap:round;stroke-linejoin:round;stroke-miterlimit:4;stroke-dashoffset:0;stroke-opacity:1" id="path7875"/>
          <path sodipodi:nodetypes="ccscc" id="path7949" d="M 122.24219,621.79968 L 123.2365,621.83567 C 235.75895,621.83567 327.08364,530.50885 327.08364,417.98639 C 327.08364,305.46394 235.76107,214.14389 123.23649,214.13711 L 122.24219,214.17468" style="fill:url(#radialGradient4071);fill-opacity:1;fill-rule:evenodd;stroke:#000000;stroke-width:2;stroke-linecap:round;stroke-linejoin:round;stroke-miterlimit:4;stroke-dashoffset:0;stroke-opacity:1"/>
          <path id="path7930" d="M 123.23649,214.13711 C 94.905868,214.13541 71.914614,305.45926 71.914615,417.9864 C 71.914615,530.51354 94.907991,621.83567 123.2365,621.83567" style="fill:url(#radialGradient4068);fill-opacity:1;fill-rule:evenodd;stroke:#000000;stroke-width:2;stroke-linecap:round;stroke-linejoin:round;stroke-miterlimit:4;stroke-dashoffset:0;stroke-opacity:1"/>
        </g>
        <path sodipodi:type="inkscape:offset" inkscape:radius="-3.4718983" inkscape:original="M 123.25 129.09375 C 83.102492 129.09375 50.499999 258.5252 50.5 418 C 50.5 577.47481 83.102494 706.875 123.25 706.875 C 282.72478 706.87499 412.125 577.4748 412.125 418 C 412.12501 258.5252 282.72481 129.09375 123.25 129.09375 z " style="fill:none;fill-opacity:1;fill-rule:evenodd;stroke:#d7eef4;stroke-width:5;stroke-linecap:round;stroke-linejoin:round;stroke-miterlimit:4;stroke-dasharray:none;stroke-dashoffset:0;stroke-opacity:1" id="path3876" d="M 123.25,132.5625 C 115.07863,132.5625 106.35573,139.44508 97.9375,153.59375 C 89.519275,167.74242 81.721011,188.65024 75.1875,214.59375 C 62.120479,266.48078 53.96875,338.49919 53.96875,418 C 53.96875,497.50081 62.120514,569.52712 75.1875,621.40625 C 81.720993,647.34582 89.519356,668.22931 97.9375,682.375 C 106.35564,696.52069 115.07818,703.40625 123.25,703.40625 C 280.84668,703.40624 408.65625,575.5967 408.65625,418 C 408.65626,260.4033 280.84626,132.5625 123.25,132.5625 z"/>
        <path d="M 123.23438,706.89001 C 83.086879,706.89002 50.503399,577.4612 50.503398,417.9864 C 50.503397,258.5116 83.086875,129.08277 123.23438,129.08276 C 123.23438,129.08276 123.23438,129.08276 123.23438,129.08276" style="fill:#000000;fill-opacity:0.19607843;fill-rule:evenodd;stroke:none;stroke-width:2;stroke-linecap:round;stroke-linejoin:round;stroke-miterlimit:4;stroke-dashoffset:0;stroke-opacity:1" id="path8074" sodipodi:nodetypes="cscc"/>
        <path sodipodi:nodetypes="cssss" d="M 123.23438,454.36579 C 143.31539,454.36579 159.6134,438.0674 159.6134,417.98639 C 159.6134,397.90538 143.3154,381.6082 123.234,381.60699 C 118.17806,381.60668 114.07536,397.90454 114.07536,417.98639 C 114.07536,438.06824 118.17881,454.36579 123.23438,454.36579 z" style="fill:url(#radialGradient4050);fill-opacity:1;fill-rule:evenodd;stroke:#000000;stroke-width:2;stroke-linecap:round;stroke-linejoin:round;stroke-miterlimit:4;stroke-dasharray:none;stroke-dashoffset:0;stroke-opacity:1" id="path7937"/>
      </g>
    </g>
    <g id="g4245" transform="translate(-48,0)">
      <path sodipodi:nodetypes="ccc" id="path4133" d="M 747.83075,12.913435 L 635.93075,12.913435 L 343.83075,103.39007" style="fill:none;fill-rule:evenodd;stroke:#ffffff;stroke-width:5;stroke-linecap:round;stroke-linejoin:miter;stroke-miterlimit:4;stroke-dasharray:none;stroke-opacity:1"/>
      <path transform="translate(-422.13119,-120.08656)" d="M 1275.8787,133 A 42.878681,42.878681 0 1 1 1190.1213,133 A 42.878681,42.878681 0 1 1 1275.8787,133 z" sodipodi:ry="42.878681" sodipodi:rx="42.878681" sodipodi:cy="133" sodipodi:cx="1233" id="path4135" style="fill:#000000;fill-opacity:1;fill-rule:evenodd;stroke:#ffffff;stroke-width:7;stroke-linecap:round;stroke-linejoin:round;stroke-miterlimit:4;stroke-dasharray:none;stroke-dashoffset:0;stroke-opacity:1" sodipodi:type="arc"/>
      <path id="text4137" d="M 818.18787,41.538437 C 815.85431,41.538437 813.52075,41.538437 811.18719,41.538437 C 811.18719,26.668475 811.18719,11.798513 811.18719,-3.0714488 C 807.13129,0.61402027 802.25313,3.3358936 797.18582,5.3682594 C 797.18581,3.1124849 797.1858,0.85671034 797.18579,-1.3990642 C 803.49733,-4.4113527 809.45694,-8.76272 813.17921,-14.7842 C 813.38104,-16.062024 814.57319,-15.658445 815.50573,-15.711565 C 816.39978,-15.711565 817.29382,-15.711565 818.18787,-15.711565 C 818.18787,3.371769 818.18787,22.455103 818.18787,41.538437 z" style="font-size:79.6521759px;font-style:normal;font-weight:normal;fill:#ffffff;fill-opacity:1;stroke:none;stroke-width:1px;stroke-linecap:butt;stroke-linejoin:miter;stroke-opacity:1;font-family:Bitstream Vera Sans"/>
    </g>
    <g id="g4250" transform="translate(-48,0)">
      <path style="fill:none;fill-rule:evenodd;stroke:#ffffff;stroke-width:5;stroke-linecap:round;stroke-linejoin:miter;stroke-miterlimit:4;stroke-dasharray:none;stroke-opacity:1" d="M 747.83075,264.91343 L 635.93075,264.91343 L 423.83075,315.39008" id="path4173" sodipodi:nodetypes="ccc"/>
      <path sodipodi:type="arc" style="fill:#000000;fill-opacity:1;fill-rule:evenodd;stroke:#ffffff;stroke-width:7;stroke-linecap:round;stroke-linejoin:round;stroke-miterlimit:4;stroke-dasharray:none;stroke-dashoffset:0;stroke-opacity:1" id="path4175" sodipodi:cx="1233" sodipodi:cy="133" sodipodi:rx="42.878681" sodipodi:ry="42.878681" d="M 1275.8787,133 A 42.878681,42.878681 0 1 1 1190.1213,133 A 42.878681,42.878681 0 1 1 1275.8787,133 z" transform="translate(-422.13119,131.91343)"/>
      <path id="text4177" d="M 828.61108,286.81 C 828.61108,289.05281 828.61108,291.29561 828.61108,293.53842 C 816.04875,293.53842 803.48641,293.53842 790.92407,293.53842 C 790.81428,288.04116 794.28497,283.25731 797.87133,279.40345 C 804.48101,272.45882 813.01942,267.43315 818.65502,259.55174 C 821.24347,255.94621 822.47347,250.81453 819.93186,246.85594 C 816.93406,241.91964 810.01717,240.93124 805.07374,243.26847 C 801.22428,245.07881 799.33734,249.43252 799.44159,253.51787 C 797.04321,253.27155 794.64484,253.02523 792.24646,252.77892 C 792.61707,247.16941 795.29062,241.38393 800.42606,238.66212 C 805.66365,235.87079 812.06843,235.66235 817.70077,237.28832 C 824.03681,239.17893 828.76526,245.46173 828.53331,252.11773 C 828.62608,258.73799 824.31962,264.29945 819.74498,268.64311 C 814.41217,273.96308 808.17935,278.30057 802.95409,283.726 C 802.54606,284.53068 799.62297,286.94367 801.4698,286.80999 C 810.5169,286.80999 819.56399,286.81 828.61108,286.81 z" style="font-size:79.6521759px;font-style:normal;font-weight:normal;fill:#ffffff;fill-opacity:1;stroke:none;stroke-width:1px;stroke-linecap:butt;stroke-linejoin:miter;stroke-opacity:1;font-family:Bitstream Vera Sans"/>
    </g>
    <g id="g4255" transform="translate(-48,0)">
      <path sodipodi:nodetypes="ccc" id="path4181" d="M 747.83075,516.91344 L 635.93075,516.91344 L 271.54056,437.97168" style="fill:none;fill-rule:evenodd;stroke:#ffffff;stroke-width:5;stroke-linecap:round;stroke-linejoin:miter;stroke-miterlimit:4;stroke-dasharray:none;stroke-opacity:1"/>
      <path transform="translate(-422.13119,383.91344)" d="M 1275.8787,133 A 42.878681,42.878681 0 1 1 1190.1213,133 A 42.878681,42.878681 0 1 1 1275.8787,133 z" sodipodi:ry="42.878681" sodipodi:rx="42.878681" sodipodi:cy="133" sodipodi:cx="1233" id="path4183" style="fill:#000000;fill-opacity:1;fill-rule:evenodd;stroke:#ffffff;stroke-width:7;stroke-linecap:round;stroke-linejoin:round;stroke-miterlimit:4;stroke-dasharray:none;stroke-dashoffset:0;stroke-opacity:1" sodipodi:type="arc"/>
      <path id="text4185" d="M 791.85754,530.487 C 794.1911,530.17586 796.52466,529.86473 798.85822,529.55359 C 799.65076,533.85509 801.73134,538.55477 806.17488,540.09835 C 811.18553,541.96506 817.25637,539.87263 820.00792,535.27771 C 823.14264,530.2945 822.12225,522.76073 816.93357,519.53021 C 813.61153,517.29996 809.35616,517.47756 805.66442,518.54694 C 805.9237,516.4986 806.18298,514.45026 806.44226,512.40192 C 810.70801,512.76211 815.62312,511.35034 818.06692,507.62042 C 820.38088,503.49744 819.15391,497.52045 814.81649,495.23948 C 810.13126,492.63958 803.33237,494.28811 801.04865,499.34889 C 799.82042,500.57025 800.37995,503.85875 799.01323,504.21533 C 796.86136,503.83277 794.70949,503.45022 792.55762,503.06766 C 793.44681,497.23305 797.13273,491.63123 802.79745,489.51293 C 810.08475,486.74199 819.55423,488.60359 824.04613,495.32887 C 827.46491,500.29663 827.23932,507.75074 822.65502,511.93521 C 821.77747,513.11348 819.04525,514.15864 818.85169,514.73306 C 823.78011,515.77629 827.87176,519.84415 828.80066,524.81567 C 830.15106,530.87662 828.17391,537.60388 823.40639,541.67693 C 817.74567,546.87749 808.94608,547.8708 801.96587,544.97287 C 796.21396,542.47675 792.31011,536.70871 791.85754,530.487 z" style="font-size:79.6521759px;font-style:normal;font-weight:normal;fill:#ffffff;fill-opacity:1;stroke:none;stroke-width:1px;stroke-linecap:butt;stroke-linejoin:miter;stroke-opacity:1;font-family:Bitstream Vera Sans"/>
    </g>
    <g id="g4260" transform="translate(-48,0)">
      <path style="fill:none;fill-rule:evenodd;stroke:#ffffff;stroke-width:5;stroke-linecap:round;stroke-linejoin:miter;stroke-miterlimit:4;stroke-dasharray:none;stroke-opacity:1" d="M 747.83075,768.91342 L 635.93075,768.91308 L 138.60449,422.41533" id="path4189" sodipodi:nodetypes="ccc"/>
      <path sodipodi:type="arc" style="fill:#000000;fill-opacity:1;fill-rule:evenodd;stroke:#ffffff;stroke-width:7;stroke-linecap:round;stroke-linejoin:round;stroke-miterlimit:4;stroke-dasharray:none;stroke-dashoffset:0;stroke-opacity:1" id="path4191" sodipodi:cx="1233" sodipodi:cy="133" sodipodi:rx="42.878681" sodipodi:ry="42.878681" d="M 1275.8787,133 A 42.878681,42.878681 0 1 1 1190.1213,133 A 42.878681,42.878681 0 1 1 1275.8787,133 z" transform="translate(-422.13119,635.91342)"/>
      <path id="text4193" d="M 813.0097,797.53845 C 813.0097,792.98802 813.0097,788.43758 813.0097,783.88715 C 804.76447,783.88715 796.51923,783.88715 788.27399,783.88715 C 788.27399,781.74805 788.27399,779.60895 788.27399,777.46985 C 796.94704,765.15383 805.6201,752.83781 814.29315,740.52179 C 816.19889,740.52179 818.10463,740.52179 820.01038,740.52179 C 820.01038,752.83781 820.01038,765.15383 820.01038,777.46985 C 822.57729,777.46985 825.14421,777.46985 827.71112,777.46985 C 827.71112,779.60895 827.71112,781.74805 827.71112,783.88715 C 825.14421,783.88715 822.57729,783.88715 820.01038,783.88715 C 820.01038,788.43758 820.01038,792.98802 820.01038,797.53845 C 817.67682,797.53845 815.34326,797.53845 813.0097,797.53845 z M 813.0097,777.46985 C 813.0097,768.90049 813.0097,760.33114 813.0097,751.76178 C 807.05912,760.33114 801.10854,768.90049 795.15796,777.46985 C 801.10854,777.46985 807.05912,777.46985 813.0097,777.46985 z" style="font-size:79.6521759px;font-style:normal;font-weight:normal;fill:#ffffff;fill-opacity:1;stroke:none;stroke-width:1px;stroke-linecap:butt;stroke-linejoin:miter;stroke-opacity:1;font-family:Bitstream Vera Sans"/>
    </g>
  </g>
</svg>